<?xml version="1.0" encoding="UTF-8"?>
<svg id="Layer_1" data-name="Layer 1" xmlns="http://www.w3.org/2000/svg" viewBox="0 0 1109.57 269.92">
  <defs>
    <style>
      .cls-1 {
        fill: #7fcdbf;
      }

      .cls-2 {
        fill: #fe7c87;
      }

      .cls-3 {
        fill: #fed748;
      }

      .cls-4 {
        fill: #6a4b83;
      }
    </style>
  </defs>
  <path class="cls-1" d="M127.53,108.62c-6.16,5.3-17.75,5.37-24.38.42-16.02-11.96,7.12-45.66-9.36-70.04C59.01-2.53,6.04,23.79,17.79,77.46c9.7,48.06,80.88,51.91,82.93,88.61,1.32,23.63-26.99,32.6-22.23,57.47,3.12,16.33,19.34,33.43,39.4,33.99,20.67.58,38.21-16.59,41.72-33.22,5.34-25.33-24.92-35.02-23.91-61.12,1.45-37.51,66.46-43.95,71.18-88.23,5.77-48.17-43.84-79.43-76.28-38.08-15.58,24.92,11.78,58.96-3.06,71.73Z"/>
  <path class="cls-4" d="M335.17,99.43c-13.48-48.01-58.08-59.07-89.49-44.85-33.33,14.21-42.74,50.75-45.56,61.73-9.97,38.72-1.86,96.83,38.15,116.61,46.99,22.96,92.57-11.51,100.65-54.72,11.77-37.96-.24-69.86-3.75-78.78ZM261.04,175.31c-19.01-12.55-8.89-70.67,12.34-67.85,27.73,8.19,19.72,84.35-12.34,67.85Z"/>
  <path class="cls-3" d="M423.6,126.24c-22.3.4-45.16-1.55-55.97,10.96-4.47,10.46-4.48,15.33.18,28.26,3.22,8.86,10.64,10.98,19.88,9.98,12.19-.62,21.48-1.7,25.42-2.1,19.61-1.37,36.17-.86,55.25-.76,4.41.21,8.23.49,11.21-2.04,5.95-5.8,5.42-28.26-1.63-34.75-14.61-10.25-56.51-8.91-54.33-9.56Z"/>
  <path class="cls-2" d="M579.01,22.53c-66.15-31.31-84.5,113.06-70.04,182.66,4.92,26.86,10.47,36.45,18.39,42.87,17.14,16.08,50,8.94,58.23-14.33,1.9-3.72.65-15.83-3.75-20.76-4.59-9.2-9-24.85-12.22-38.51,20.52,31.04,26.02,60.37,53,64.11,21.16,5.76,39.38-7.84,42.01-25.18.7-3.7,2.01-10.52-1.66-16.5-1.07-3.62-20.87-14.31-27.62-16.33-7.69-2.78-21.74-9.63-49.69-27.51,23.97-10.15,25.54-10.97,49.63-22.18,10.31-4.68,13.53-6.03,17.8-9.77,8.1-6.37,12.24-12.94,11.55-26.02,1.95-17.7-6.86-35.98-28.15-32.72-6.17.88-23.12,17.69-21.99,16.9-8.02,8.56-29.29,29.66-45.71,42.72,1.15-27.71,16.54-35.11,23.07-55.01,3.42-18.02-1.08-34.87-12.87-44.45Z"/>
  <path class="cls-3" d="M726.37,109.42c-31.67.05-36.17,46.7-41.48,71.84-6.01,36.2-8.2,64.49,24.92,62.38,41.72-.96,50-18.46,45.54-57.38-4.75-42.15-7.58-36.68-7.41-51.9,2.27-19.84-5.08-26.17-21.57-24.94Z"/>
  <path class="cls-3" d="M725.48,41.61c-11.99,2.74-24.66,12.58-29.93,27.17-6.4,16.46,5.45,41.72,27.86,38.87,13.81-2.14,27.04-8.91,33.36-25.45,6.56-15.6-7.19-43.44-31.3-40.59Z"/>
  <path class="cls-4" d="M852.26,22.53c-66.3-31.83-84.8,115.61-70.04,182.66,6.9,31.52,13.74,46.34,41.28,50.37,20.08-.36,35.35-17.11,36.2-29.91-.07-3.5-1.31-4.98-4.6-12.67-2.01-4.2-10.1-26.27-12.22-38.51,14.42,30.98,23.36,47.1,39.78,58.05,11.07,6,21.41,12.17,40.14,3.07,15.28-10.31,19.02-27.42,13.42-38.68.9-2.69-25.28-16.15-27.62-16.33-16.62-6.7-33.25-14.06-49.69-27.51,23.97-10.15,25.55-10.97,49.63-22.18,10.31-4.68,13.53-6.03,17.8-9.77,13.63-9.4,11.07-21.57,11.53-37.27-2.16-19.37-22.17-27.1-36.38-16.86-20.73,19.32-38.43,36.47-59.45,55.01.67-5.98,2.2-14.84,6.21-24.85,3.99-9.97,6.26-10.64,10.32-20.45,7.2-16.64,12.75-38.21-6.33-54.16Z"/>
  <path class="cls-1" d="M1087.18,99.96c-9.18-26.13-21.64-48.99-61.51-52.37-53.46.67-78.71,63.81-77.33,97.36-1.36,19.59,3.68,57.49,23.9,76.97,38.93,33.87,76.8,16.33,94.9-.7,25.05-26.26,33.03-78.19,20.03-121.26ZM1031.96,174.36c-7.39,9.99-22.25,9.22-29.19-.86-6.93-10.07-5.81-24.88-2.51-36.02,6.38-26.39,35.39-35.16,37.48-1.54,1.53,12.22,1.92,28.01-5.78,38.42Z"/>
</svg>